<svg width="300" height="47" viewBox="0 0 300 47" fill="none" xmlns="http://www.w3.org/2000/svg">
<g clip-path="url(#clip0_1236_5123)">
<g clip-path="url(#clip1_1236_5123)">
<g clip-path="url(#clip2_1236_5123)">
<g clip-path="url(#clip3_1236_5123)">
<g clip-path="url(#clip4_1236_5123)">
<g clip-path="url(#clip5_1236_5123)">
<g clip-path="url(#clip6_1236_5123)">
<path d="M28.5678 41.9652L23.5836 44.3173L18.7113 33.6767C17.4792 31.0259 15.9298 29.1404 14.063 28.0204C12.1962 26.9003 9.80677 26.3403 6.89461 26.3403H6.05456V43.6453H0.734253V4.55503C2.71303 4.36835 4.60967 4.23021 6.42418 4.1406C8.23122 4.04353 10.1615 3.995 12.2149 3.995C16.9939 3.995 20.5893 4.96572 23.0011 6.90716C25.4055 8.84861 26.6077 11.3501 26.6077 14.4116C26.6077 17.1371 25.7976 19.3287 24.1772 20.9864C22.5494 22.6515 20.2047 23.8948 17.1432 24.7162C18.1512 25.1642 19.0473 25.6944 19.8313 26.3067C20.6154 26.9264 21.3733 27.7478 22.1051 28.7708C22.8294 29.8013 23.5649 31.1379 24.3116 32.7806L28.5678 41.9652ZM6.05456 8.69927V21.86H12.2149C14.9031 21.86 17.0872 21.2627 18.7673 20.0679C20.4474 18.8732 21.2874 17.1558 21.2874 14.9156C21.2874 13.0488 20.5034 11.5069 18.9353 10.2898C17.3672 9.08009 15.1271 8.47525 12.2149 8.47525C10.9455 8.47525 9.80677 8.49392 8.79871 8.53126C7.79066 8.56859 6.87594 8.62459 6.05456 8.69927ZM46.3769 44.3173C42.1953 44.3173 38.8799 42.9807 36.4307 40.3075C33.989 37.6417 32.7681 33.9007 32.7681 29.0844C32.7681 26.1723 33.3169 23.5663 34.4146 21.2664C35.5197 18.974 37.0617 17.1632 39.0404 15.8341C41.0192 14.5124 43.3154 13.8516 45.9288 13.8516C48.729 13.8516 51.0513 14.4564 52.8956 15.6661C54.7475 16.8832 56.1401 18.5185 57.0735 20.5719C58.0069 22.6254 58.4736 24.8842 58.4736 27.3483C58.4736 28.6551 58.4176 29.9245 58.3056 31.1566H37.9204C38.2564 33.882 39.2085 36.0102 40.7765 37.5409C42.3446 39.0717 44.4168 39.837 46.9929 39.837C48.673 39.837 50.1851 39.6578 51.5292 39.2994C52.8732 38.9485 54.1613 38.493 55.3934 37.9329L56.5694 42.2452C55.2254 42.8426 53.7133 43.3391 52.0332 43.7349C50.3531 44.1232 48.4677 44.3173 46.3769 44.3173ZM37.8644 27.0683H53.8253C53.8253 24.2308 53.1159 22.0467 51.6972 20.5159C50.2784 18.9852 48.3183 18.2198 45.8168 18.2198C43.6514 18.2198 41.8593 18.974 40.4405 20.4823C39.0218 21.9982 38.1631 24.1935 37.8644 27.0683ZM76.9546 44.3173C74.1843 44.3173 71.765 43.6714 69.6966 42.3796C67.6282 41.0953 66.034 39.3032 64.9139 37.0033C63.7939 34.7109 63.2338 32.0713 63.2338 29.0844C63.2338 26.2843 63.8013 23.7268 64.9363 21.412C66.0713 19.0972 67.7066 17.2566 69.8422 15.8901C71.9703 14.5311 74.4718 13.8516 77.3466 13.8516C78.9819 13.8516 80.4268 14.0009 81.6813 14.2996C82.9358 14.5983 84.1417 15.0276 85.2991 15.5877L83.787 19.8439C82.7416 19.3212 81.741 18.9367 80.7852 18.6902C79.8369 18.4513 78.7841 18.3318 77.6267 18.3318C75.0132 18.3318 72.8178 19.2727 71.0407 21.1544C69.2635 23.0436 68.3749 25.6496 68.3749 28.9724C68.3749 30.9885 68.7483 32.818 69.495 34.4607C70.2417 36.1035 71.2796 37.4102 72.6088 38.381C73.9379 39.3517 75.4948 39.837 77.2794 39.837C78.7056 39.837 79.919 39.6765 80.9196 39.3554C81.9352 39.0418 83.0216 38.5863 84.179 37.9889L85.7471 42.2452C84.5823 42.8799 83.283 43.3839 81.8493 43.7573C80.4156 44.1306 78.7841 44.3173 76.9546 44.3173ZM101.137 44.3173C99.4567 44.3173 97.8699 43.9626 96.3765 43.2532C94.8831 42.5439 93.6697 41.3939 92.7363 39.8034C91.8029 38.2204 91.3362 36.1035 91.3362 33.4527V14.5236H96.3765V32.7806C96.3765 35.0581 96.8619 36.8017 97.8326 38.0113C98.8033 39.2285 100.222 39.837 102.089 39.837C103.62 39.837 105.106 39.5272 106.547 38.9074C107.98 38.2951 109.257 37.4662 110.377 36.4209V14.5236H115.418V36.0848C115.418 37.6903 115.765 38.7431 116.459 39.2434C117.146 39.7512 117.9 40.0051 118.722 40.0051L117.658 43.9253C114.186 43.9253 112.039 42.5439 111.217 39.781C109.911 41.1251 108.399 42.2153 106.681 43.0516C104.964 43.8954 103.116 44.3173 101.137 44.3173ZM130.482 43.6453H125.442V14.5236H130.314V20.852C130.8 19.6199 131.453 18.47 132.275 17.4022C133.096 16.3418 134.123 15.4831 135.355 14.826C136.587 14.1764 138.024 13.8516 139.667 13.8516C140.227 13.8516 140.787 13.8777 141.347 13.93C141.907 13.9897 142.374 14.0756 142.747 14.1876L141.235 19.3959C140.526 19.0972 139.686 18.9479 138.715 18.9479C137.334 18.9479 136.019 19.3399 134.772 20.1239C133.518 20.908 132.491 22.1214 131.692 23.7641C130.886 25.4069 130.482 27.4977 130.482 30.0365V43.6453ZM154.228 44.3173C152.025 44.3173 150.035 44.0373 148.258 43.4773C146.488 42.9172 145.025 42.1892 143.867 41.2931L145.995 37.0929C146.966 37.9143 148.187 38.5938 149.658 39.1314C151.136 39.6765 152.716 39.9491 154.396 39.9491C156.487 39.9491 158.062 39.6018 159.123 38.9074C160.19 38.2204 160.724 37.3356 160.724 36.2528C160.724 35.4688 160.526 34.7781 160.131 34.1807C159.742 33.5834 159.025 32.9935 157.98 32.411C156.935 31.8361 155.423 31.2126 153.444 30.5405C150.718 29.6071 148.672 28.4945 147.306 27.2027C145.947 25.9184 145.267 24.1375 145.267 21.86C145.267 19.6199 146.246 17.7232 148.202 16.1701C150.166 14.6244 152.884 13.8516 156.356 13.8516C158.223 13.8516 159.884 14.0457 161.34 14.434C162.796 14.8298 164.103 15.3263 165.26 15.9237L163.86 20.0679C162.852 19.4706 161.702 18.9852 160.411 18.6118C159.126 18.2385 157.7 18.0518 156.132 18.0518C154.191 18.0518 152.716 18.4438 151.708 19.2279C150.7 20.0119 150.196 20.8706 150.196 21.804C150.196 22.7001 150.588 23.4654 151.372 24.1001C152.156 24.7349 153.686 25.4256 155.964 26.1723C159.66 27.4043 162.236 28.7671 163.692 30.2605C165.148 31.7539 165.877 33.6207 165.877 35.8608C165.877 38.4743 164.82 40.5352 162.707 42.0436C160.601 43.5594 157.775 44.3173 154.228 44.3173ZM177.637 43.6453H172.597V14.5236H177.637V43.6453ZM175.117 9.53931C174.146 9.53931 173.314 9.18463 172.619 8.47525C171.932 7.76588 171.589 6.9445 171.589 6.01111C171.589 4.92839 171.906 4.06967 172.541 3.43496C173.176 2.80026 174.034 2.48291 175.117 2.48291C176.088 2.48291 176.917 2.82639 177.604 3.51337C178.298 4.20781 178.645 5.04039 178.645 6.01111C178.645 7.05651 178.328 7.90402 177.693 8.55366C177.058 9.21076 176.2 9.53931 175.117 9.53931ZM199.635 43.6453H194.371L182.666 15.8677L187.259 13.9636L197.171 37.9329L207.084 13.9636L211.396 15.8677L199.635 43.6453ZM226.461 44.3173C224.034 44.3173 221.831 43.7013 219.852 42.4692C217.874 41.2371 216.298 39.4898 215.126 37.2273C213.946 34.9722 213.356 32.314 213.356 29.2524C213.356 26.3403 213.946 23.7268 215.126 21.412C216.298 19.0972 217.922 17.2566 219.998 15.8901C222.066 14.5311 224.445 13.8516 227.133 13.8516C228.813 13.8516 230.336 14.139 231.703 14.714C233.062 15.2964 234.245 16.017 235.253 16.8757V14.5236H239.846V36.5889C239.846 38.0076 240.193 38.9298 240.887 39.3554C241.574 39.7885 242.328 40.0051 243.15 40.0051L242.086 43.9253C238.501 43.9253 236.336 42.4692 235.589 39.557C234.731 40.7518 233.566 41.842 232.095 42.8276C230.616 43.8207 228.738 44.3173 226.461 44.3173ZM227.581 39.837C229 39.837 230.344 39.4898 231.613 38.7954C232.882 38.1084 233.947 37.2422 234.805 36.1968V20.5719C233.797 19.8626 232.688 19.2913 231.479 18.8582C230.262 18.4326 228.981 18.2198 227.637 18.2198C225.845 18.2198 224.269 18.6753 222.91 19.5863C221.544 20.5047 220.468 21.7779 219.684 23.4057C218.9 25.0261 218.508 26.919 218.508 29.0844C218.508 31.1752 218.9 33.0308 219.684 34.6512C220.468 36.279 221.551 37.5484 222.933 38.4594C224.314 39.3778 225.863 39.837 227.581 39.837Z" fill="white"/>
</g>
</g>
</g>
</g>
<g clip-path="url(#clip7_1236_5123)">
<g clip-path="url(#clip8_1236_5123)">
<path d="M253.037 43.3462L267.478 28.9004L270.652 32.0783L256.205 46.5258L253.037 43.3462Z" fill="#F2994A"/>
<path d="M299.277 16.67C299.277 25.7255 291.932 33.0649 282.887 33.0649C273.826 33.0649 266.485 25.7249 266.485 16.67C266.485 7.62004 273.825 0.273926 282.887 0.273926C291.933 0.274485 299.277 7.62004 299.277 16.67ZM296.005 16.67C296.005 9.4289 290.124 3.55581 282.887 3.55581C275.64 3.55581 269.768 9.4289 269.768 16.67C269.768 23.9166 275.64 29.7874 282.887 29.7874C290.123 29.788 296.005 23.9172 296.005 16.67Z" fill="#F2994A"/>
<path d="M287.544 23.5192C287.194 23.4498 286.848 23.3651 286.505 23.2655C279.827 21.3734 275.961 14.4369 277.847 7.76416C277.616 13.9876 281.967 19.4405 288.098 20.5877C288.29 20.6258 288.473 20.7013 288.636 20.81C288.799 20.9187 288.939 21.0585 289.048 21.2213C289.157 21.3841 289.233 21.5667 289.271 21.7589C289.31 21.951 289.31 22.1488 289.272 22.341C289.234 22.5332 289.158 22.716 289.049 22.879C288.941 23.042 288.801 23.182 288.638 23.291C288.475 23.4 288.293 23.4758 288.101 23.5142C287.908 23.5526 287.711 23.5528 287.518 23.5148" fill="#F2994A"/>
</g>
</g>
</g>
</g>
</g>
<defs>
<clipPath id="clip0_1236_5123">
<rect width="300" height="46.8" fill="white"/>
</clipPath>
<clipPath id="clip1_1236_5123">
<rect width="298.554" height="46.2521" fill="white" transform="translate(0.723083 0.273926)"/>
</clipPath>
<clipPath id="clip2_1236_5123">
<rect width="298.554" height="46.2521" fill="white" transform="translate(0.723083 0.273926)"/>
</clipPath>
<clipPath id="clip3_1236_5123">
<rect width="242.438" height="41.8344" fill="white" transform="translate(0.723083 2.48291)"/>
</clipPath>
<clipPath id="clip4_1236_5123">
<rect width="242.438" height="41.8344" fill="white" transform="translate(0.723083 2.48291)"/>
</clipPath>
<clipPath id="clip5_1236_5123">
<rect width="242.438" height="41.8344" fill="white" transform="translate(0.723083 2.48291)"/>
</clipPath>
<clipPath id="clip6_1236_5123">
<rect width="242.438" height="41.8344" fill="white" transform="translate(0.723083 2.48291)"/>
</clipPath>
<clipPath id="clip7_1236_5123">
<rect width="46.2398" height="46.2521" fill="white" transform="translate(253.037 0.273926)"/>
</clipPath>
<clipPath id="clip8_1236_5123">
<rect width="46.2398" height="46.2521" fill="white" transform="translate(253.037 0.273926)"/>
</clipPath>
</defs>
</svg>
